<svg width="85" height="86" viewBox="0 0 85 86" fill="none" xmlns="http://www.w3.org/2000/svg">
<path d="M84.9244 23.4103C81.4562 17.3223 76.587 12.1276 70.711 8.24664C64.835 4.36571 58.1173 1.9077 51.102 1.07163C44.0867 0.235572 36.9709 1.04496 30.3307 3.43425C23.6905 5.82355 17.7127 9.72559 12.8811 14.8244C8.0496 19.9233 4.5002 26.0756 2.52032 32.7833C0.540447 39.491 0.185749 46.5655 1.48495 53.4339C2.78415 60.3023 5.70072 66.7717 9.99853 72.3182C14.2963 77.8646 19.8546 82.3323 26.2232 85.3594L34.6117 68.1011C30.9835 66.3766 27.817 63.8314 25.3686 60.6716C22.9201 57.5117 21.2585 53.8261 20.5184 49.9132C19.7782 46.0003 19.9803 41.9699 21.1082 38.1486C22.2362 34.3272 24.2583 30.8222 27.0108 27.9174C29.7633 25.0126 33.1689 22.7896 36.9518 21.4285C40.7347 20.0673 44.7886 19.6062 48.7852 20.0825C52.7818 20.5588 56.6088 21.9591 59.9564 24.1701C63.3039 26.381 66.0779 29.3405 68.0538 32.8088L84.9244 23.4103Z" fill="white"/>
</svg>
