<svg width="31" height="26" viewBox="0 0 31 26" fill="none" xmlns="http://www.w3.org/2000/svg">
<path d="M26.9067 25.4999C28.4263 23.6901 29.4982 21.5478 30.0358 19.2466C30.5734 16.9454 30.5616 14.5499 30.0012 12.2542C29.4408 9.95841 28.3477 7.82687 26.8103 6.03215C25.2729 4.23744 23.3345 2.82998 21.152 1.92375C18.9695 1.01752 16.6043 0.63799 14.2478 0.815885C11.8914 0.993781 9.6099 1.7241 7.58819 2.94772C5.56648 4.17134 3.86134 5.85386 2.61082 7.85904C1.3603 9.86423 0.599568 12.1357 0.390208 14.4896L6.84065 15.0633C6.95992 13.7223 7.39331 12.4282 8.10573 11.2859C8.81815 10.1435 9.78957 9.18501 10.9413 8.48792C12.0931 7.79083 13.3928 7.37476 14.7353 7.27342C16.0778 7.17207 17.4253 7.38829 18.6686 7.90457C19.912 8.42084 21.0163 9.22267 21.8922 10.2451C22.768 11.2676 23.3908 12.4819 23.71 13.7898C24.0292 15.0977 24.036 16.4624 23.7297 17.7734C23.4235 19.0844 22.8128 20.3048 21.9471 21.3359L26.9067 25.4999Z" fill="#EBEBFF"/>
</svg>
