<svg width="99" height="101" viewBox="0 0 99 101" fill="none" xmlns="http://www.w3.org/2000/svg">
<path d="M98.2411 26.9707C94.1949 19.7883 88.5141 13.6596 81.6588 9.08097C74.8034 4.50234 66.9662 1.60244 58.7816 0.616075C50.5971 -0.370291 42.2953 0.5846 34.5484 3.40343C26.8016 6.22226 19.8274 10.8258 14.1906 16.8413C8.5538 22.8568 4.41283 30.1152 2.10297 38.0287C-0.206881 45.9423 -0.620695 54.2886 0.895036 62.3918C2.41077 70.495 5.81344 78.1274 10.8275 84.671C15.8416 91.2146 22.3262 96.4854 29.7563 100.057L39.5429 79.6958C35.31 77.6612 31.6158 74.6585 28.7592 70.9306C25.9027 67.2027 23.9642 62.8545 23.1007 58.2381C22.2372 53.6217 22.4729 48.8669 23.7889 44.3585C25.1048 39.8502 27.4639 35.7151 30.6752 32.2881C33.8864 28.8611 37.8596 26.2384 42.273 24.6325C46.6864 23.0267 51.4159 22.4827 56.0786 23.0446C60.7414 23.6065 65.2062 25.2586 69.1117 27.867C73.0172 30.4755 76.2535 33.967 78.5587 38.0588L98.2411 26.9707Z" fill="#6070FF"/>
</svg>
